<?xml version="1.0" encoding="utf-8"?>
<?xml-stylesheet type="text/xsl" href="rss1.xsl"?>
<rss version="2.0" xmlns:atom="http://www.w3.org/2005/Atom" xmlns:content="http://purl.org/rss/1.0/modules/content/" xmlns:dc="http://purl.org/dc/elements/1.1/" xmlns:media="http://search.yahoo.com/mrss/">
<channel>
 <title>Getty</title>
 <link>http://www.gettyimg.com/</link>
 <atom:link href="http://www.gettyimg.com/" rel="self" type="application/rss+xml" />

 
                <item>
                <title><![CDATA[【HD Live Performances】WEB-DL - Apple Music Live: SZA|2160p|H.265|DV.HDR|DDP5.1 Atmos]]></title>
                <link><![CDATA[https://sharemania.us/threads/apple-music-live-sza-2160p-h-265-dv-hdr-ddp5-1-atmos.237365/]]></link>
                <description><![CDATA[<article>
<blockquote class="messageText SelectQuoteContainer ugc baseHtml">
<img src="https://cdn2.albumoftheyear.org/750x/album/870131-apple-music-live-sza_135351.jpg" class="bbCodeImage LbImage" alt="[​IMG]" data-url="https://cdn2.albumoftheyear.org/750x/album/870131-apple-music-live-sza_135351.jpg" style=""><br>
<br>
<img src="https://images2.imgbox.com/59/02/G2xHoGfD_o.png" class="bbCodeImage LbImage" alt="[​IMG]" data-url="https://images2.imgbox.com/59/02/G2xHoGfD_o.png" style=""><br>
<br>
A live concert from SZA at the Barclays Center, Brooklyn, New York from the SOS Tour.<br>
<br>
<br>
<div class="ToggleTriggerAnchor bbCodeSpoilerContainer">
<button type="button" class="button bbCodeSpoilerButton ToggleTrigger Tooltip JsOnly" data-target="> .SpoilerTarget"><span>Spoiler: <span class="SpoilerTitle">MediaInfo</span></span></button>
<div class="SpoilerTarget bbCodeSpoilerText">Format : Matroska<br>
Format version : Version 4<br>
File size : 5.01 GiB<br>
Duration : 1 h 0 min<br>
Overall bit rate : 11.9 Mb/s<br>
Frame rate : 23.976 FPS<br>
Writing application : mkvmerge v82.0 ('I'm The President') 64-bit<br>
Writing library : libebml v1.4.5 + libmatroska v1.7.1<br>
<br>
Video<br>
ID : 1<br>
Format : HEVC<br>
Format/Info : High Efficiency Video Coding<br>
Format profile : Main 10@L5@High<br>
HDR format : Dolby Vision, Version 1.0, Profile 8.1, dvhe.08.06, BL+RPU, HDR10 compatible / SMPTE ST 2094 App 4, Version HDR10+ Profile B, HDR10+ Profile B compatible<br>
Codec ID : V_MPEGH/ISO/HEVC<br>
Duration : 1 h 0 min<br>
Bit rate : 11.2 Mb/s<br>
Width : 3 840 pixels<br>
Height : 2 160 pixels<br>
Display aspect ratio : 16:9<br>
Frame rate mode : Constant<br>
Frame rate : 23.976 (24000/1001) FPS<br>
Color space : YUV<br>
Chroma subsampling : 4:2:0 (Type 2)<br>
Bit depth : 10 bits<br>
Bits/(Pixel*Frame) : 0.056<br>
Stream size : 4.68 GiB (94%)<br>
Language : English<br>
Default : Yes<br>
Forced : No<br>
Color range : Limited<br>
Color primaries : BT.2020<br>
Transfer characteristics : PQ<br>
Matrix coefficients : BT.2020 non-constant<br>
Mastering display color primaries : Display P3<br>
Mastering display luminance : min: 0.0050 cd/m2, max: 1000 cd/m2<br>
Maximum Content Light Level : 318 cd/m2<br>
Maximum Frame-Average Light Level : 173 cd/m2<br>
<br>
Audio<br>
ID : 2<br>
Format : E-AC-3 JOC<br>
Format/Info : Enhanced AC-3 with Joint Object Coding<br>
Commercial name : Dolby Digital Plus with Dolby Atmos<br>
Codec ID : A_EAC3<br>
Duration : 1 h 0 min<br>
Bit rate mode : Constant<br>
Bit rate : 768 kb/s<br>
Channel(s) : 6 channels<br>
Channel layout : L R C LFE Ls Rs<br>
Sampling rate : 48.0 kHz<br>
Frame rate : 31.250 FPS (1536 SPF)<br>
Compression mode : Lossy<br>
Stream size : 330 MiB (3%)<br>
Language : English<br>
Service kind : Complete Main<br>
Default : Yes<br>
Forced : No<br>
Complexity index : 16<br>
Number of dynamic objects : 15<br>
Bed channel count : 1 channel<br>
Bed channel configuration : LFE<br>
<br>
Text #1<br>
ID : 3<br>
Format : UTF-8<br>
Codec ID : S_TEXT/UTF8<br>
Codec ID/Info : UTF-8 Plain Text<br>
Language : English<br>
Default : No<br>
Forced : No<br>
<br>
Text #2<br>
ID : 4<br>
Format : UTF-8<br>
Codec ID : S_TEXT/UTF8<br>
Codec ID/Info : UTF-8 Plain Text<br>
Title : SDH<br>
Language : English<br>
Default : No<br>
Forced : No</div>
</div><br>
<br>
<div class="bbCodeBlock bbCodeVfcHH HiddenContent">
<div class="attribution type">Hidden Content:</div>
<blockquote>You must either reply or click 'Like' to see the hidden information contained here.</blockquote>
</div>
<div class="messageTextEndMarker">&nbsp;</div>
</blockquote>
</article>]]></description>
                <author><![CDATA[letlotlop]]></author>
                </item>

                </channel></rss>